<svg xmlns="http://www.w3.org/2000/svg" xmlns:xlink="http://www.w3.org/1999/xlink" version="1.1" data-diagram-type="SEQUENCE" style="width:857px;height:1051px;background:#FFFFFF;" width="857px" height="1051px" viewBox="0 0 857 1051" zoomAndPan="magnify" preserveAspectRatio="none" contentStyleType="text/css"><?plantuml 1.2026.7beta11?><defs/><g font-family="sans-serif" lengthAdjust="spacing"><g class="title" data-source-line="5"><text x="171.387" y="27.995" fill="#000" font-size="14" textLength="513.215" font-weight="700">Use Case "Benutzer stellt eine Support-Frage" - TechSupportApp</text></g><rect x="13" y="437.039" width="824.988" height="337.133" fill="none" style="stroke:#000;stroke-width:1.5;"/><rect x="32" y="584.703" width="780.988" height="175.469" fill="none" style="stroke:#000;stroke-width:1.5;"/><g><title>Benutzer</title><rect x="44.5" y="123.594" width="8" height="840.109" fill="#000" fill-opacity="0"/><line x1="48" y1="123.594" x2="48" y2="963.703" style="stroke:#666;stroke-width:0.5;stroke-dasharray:5,5;"/></g><g><title>Starter</title><rect x="238.933" y="123.594" width="8" height="840.109" fill="#000" fill-opacity="0"/><line x1="242.433" y1="123.594" x2="242.433" y2="963.703" style="stroke:#666;stroke-width:0.5;stroke-dasharray:5,5;"/></g><g><title></title><rect x="237.433" y="152.727" width="10" height="792.977" fill="#FFF" style="stroke:#181818;stroke-width:1;"/></g><g><title>supportSystem</title><rect x="474.304" y="160.727" width="8" height="763.844" fill="#000" fill-opacity="0"/><line x1="477.804" y1="160.727" x2="477.804" y2="924.57" style="stroke:#666;stroke-width:0.5;stroke-dasharray:5,5;"/></g><g><title></title><rect x="472.804" y="181.859" width="10" height="142.781" fill="#FFF" style="stroke:#181818;stroke-width:1;"/></g><g><title></title><rect x="472.804" y="353.773" width="10" height="526.797" fill="#FFF" style="stroke:#181818;stroke-width:1;"/></g><g><title></title><rect x="477.804" y="395.906" width="10" height="29.133" fill="#DDD" style="stroke:#181818;stroke-width:1;"/></g><g><title></title><rect x="477.804" y="822.305" width="10" height="29.133" fill="#DDD" style="stroke:#181818;stroke-width:1;"/></g><line x1="468.804" y1="871.57" x2="486.804" y2="889.57" style="stroke:#666;stroke-width:2;"/><line x1="468.804" y1="889.57" x2="486.804" y2="871.57" style="stroke:#666;stroke-width:2;"/><g><title>reader</title><rect x="674.5" y="208.32" width="8" height="698.25" fill="#000" fill-opacity="0"/><line x1="678" y1="208.32" x2="678" y2="906.57" style="stroke:#666;stroke-width:0.5;stroke-dasharray:5,5;"/></g><g><title></title><rect x="673" y="485.305" width="10" height="87.398" fill="#FFF" style="stroke:#181818;stroke-width:1;"/></g><g><title>responder</title><rect x="788.488" y="255.914" width="8" height="632.656" fill="#000" fill-opacity="0"/><line x1="791.988" y1="255.914" x2="791.988" y2="888.57" style="stroke:#666;stroke-width:0.5;stroke-dasharray:5,5;"/></g><g><title></title><rect x="786.988" y="693.906" width="10" height="29.133" fill="#FFF" style="stroke:#181818;stroke-width:1;"/></g><text x="13.415" y="120.292" fill="#000" font-size="14" textLength="63.171">Benutzer</text><ellipse cx="48" cy="55.797" rx="8" ry="8" fill="#E2E2F0" style="stroke:#181818;stroke-width:0.5;"/><path d="M48,63.797 L48,90.797 M35,71.797 L61,71.797 M48,90.797 L35,105.797 M48,90.797 L61,105.797" style="stroke:#181818;stroke-width:0.5;" fill="none"/><rect x="211.148" y="92.297" width="62.569" height="30.297" fill="#E2E2F0" style="stroke:#333;stroke-width:0.5;" rx="2.5" ry="2.5"/><text x="218.148" y="112.292" fill="#000" font-size="14" textLength="48.569">Starter</text><text x="13.415" y="976.698" fill="#000" font-size="14" textLength="63.171">Benutzer</text><ellipse cx="48" cy="988.5" rx="8" ry="8" fill="#E2E2F0" style="stroke:#181818;stroke-width:0.5;"/><path d="M48,996.5 L48,1023.5 M35,1004.5 L61,1004.5 M48,1023.5 L35,1038.5 M48,1023.5 L61,1038.5" style="stroke:#181818;stroke-width:0.5;" fill="none"/><rect x="211.148" y="963.703" width="62.569" height="30.297" fill="#E2E2F0" style="stroke:#333;stroke-width:0.5;" rx="2.5" ry="2.5"/><text x="218.148" y="983.698" fill="#000" font-size="14" textLength="48.569">Starter</text><rect x="412.446" y="963.703" width="130.717" height="46.594" fill="#E2E2F0" style="stroke:#333;stroke-width:0.5;" rx="2.5" ry="2.5"/><text x="424.826" y="983.698" fill="#000" font-size="14" textLength="105.957">supportSystem</text><text x="419.446" y="999.995" fill="#000" font-size="14" textLength="116.717">: SupportSystem</text><rect x="623.203" y="963.703" width="109.594" height="46.594" fill="#E2E2F0" style="stroke:#333;stroke-width:0.5;" rx="2.5" ry="2.5"/><text x="654.898" y="983.698" fill="#000" font-size="14" textLength="46.204">reader</text><text x="630.203" y="999.995" fill="#000" font-size="14" textLength="95.594">: InputReader</text><rect x="742.797" y="963.703" width="98.383" height="46.594" fill="#E2E2F0" style="stroke:#333;stroke-width:0.5;" rx="2.5" ry="2.5"/><text x="756.366" y="983.698" fill="#000" font-size="14" textLength="71.244">responder</text><text x="749.797" y="999.995" fill="#000" font-size="14" textLength="84.383">: Responder</text><polygon points="225.433,148.727,235.433,152.727,225.433,156.727,229.433,152.727" fill="#181818" style="stroke:#181818;stroke-width:1;stroke-linejoin:miter;stroke-miterlimit:10;"/><line x1="48" y1="152.727" x2="231.433" y2="152.727" style="stroke:#181818;stroke-width:1;"/><text x="55" y="147.661" fill="#000" font-size="13" textLength="165.433">Programm starten (main)</text><rect x="407.446" y="160.727" width="130.717" height="46.594" fill="#E2E2F0" style="stroke:#333;stroke-width:0.5;" rx="2.5" ry="2.5"/><text x="419.826" y="180.722" fill="#000" font-size="14" textLength="105.957">supportSystem</text><text x="414.446" y="197.019" fill="#000" font-size="14" textLength="116.717">: SupportSystem</text><polygon points="395.446,177.859,405.446,181.859,395.446,185.859,399.446,181.859" fill="#181818" style="stroke:#181818;stroke-width:1;stroke-linejoin:miter;stroke-miterlimit:10;"/><line x1="247.433" y1="181.859" x2="401.446" y2="181.859" style="stroke:#181818;stroke-width:1;"/><text x="254.433" y="176.793" fill="#000" font-size="13" textLength="141.013">new SupportSystem()</text><rect x="623.203" y="208.32" width="109.594" height="46.594" fill="#E2E2F0" style="stroke:#333;stroke-width:0.5;" rx="2.5" ry="2.5"/><text x="654.898" y="228.315" fill="#000" font-size="14" textLength="46.204">reader</text><text x="630.203" y="244.612" fill="#000" font-size="14" textLength="95.594">: InputReader</text><polygon points="611.203,225.453,621.203,229.453,611.203,233.453,615.203,229.453" fill="#181818" style="stroke:#181818;stroke-width:1;stroke-linejoin:miter;stroke-miterlimit:10;"/><line x1="482.804" y1="229.453" x2="617.203" y2="229.453" style="stroke:#181818;stroke-width:1;"/><text x="489.804" y="224.387" fill="#000" font-size="13" textLength="121.399">new InputReader()</text><rect x="742.797" y="255.914" width="98.383" height="46.594" fill="#E2E2F0" style="stroke:#333;stroke-width:0.5;" rx="2.5" ry="2.5"/><text x="756.366" y="275.909" fill="#000" font-size="14" textLength="71.244">responder</text><text x="749.797" y="292.206" fill="#000" font-size="14" textLength="84.383">: Responder</text><polygon points="730.797,273.047,740.797,277.047,730.797,281.047,734.797,277.047" fill="#181818" style="stroke:#181818;stroke-width:1;stroke-linejoin:miter;stroke-miterlimit:10;"/><line x1="482.804" y1="277.047" x2="736.797" y2="277.047" style="stroke:#181818;stroke-width:1;"/><text x="489.804" y="271.981" fill="#000" font-size="13" textLength="110.989">new Responder()</text><polygon points="258.433,320.641,248.433,324.641,258.433,328.641,254.433,324.641" fill="#181818" style="stroke:#181818;stroke-width:1;stroke-linejoin:miter;stroke-miterlimit:10;"/><line x1="252.433" y1="324.641" x2="471.804" y2="324.641" style="stroke:#181818;stroke-width:1;stroke-dasharray:2,2;"/><text x="264.433" y="319.575" fill="#000" font-size="13" textLength="98.389">supportSystem</text><polygon points="460.804,349.773,470.804,353.773,460.804,357.773,464.804,353.773" fill="#181818" style="stroke:#181818;stroke-width:1;stroke-linejoin:miter;stroke-miterlimit:10;"/><line x1="247.433" y1="353.773" x2="466.804" y2="353.773" style="stroke:#181818;stroke-width:1;"/><text x="254.433" y="348.708" fill="#000" font-size="13" textLength="40.422">start()</text><line x1="482.804" y1="382.906" x2="529.804" y2="382.906" style="stroke:#181818;stroke-width:1;"/><line x1="529.804" y1="382.906" x2="529.804" y2="395.906" style="stroke:#181818;stroke-width:1;"/><line x1="488.804" y1="395.906" x2="529.804" y2="395.906" style="stroke:#181818;stroke-width:1;"/><polygon points="498.804,391.906,488.804,395.906,498.804,399.906,494.804,395.906" fill="#181818" style="stroke:#181818;stroke-width:1;stroke-linejoin:miter;stroke-miterlimit:10;"/><text x="494.804" y="377.84" fill="#000" font-size="13" textLength="100.915">printWelcome()</text><polygon points="59,421.039,49,425.039,59,429.039,55,425.039" fill="#181818" style="stroke:#181818;stroke-width:1;stroke-linejoin:miter;stroke-miterlimit:10;"/><line x1="53" y1="425.039" x2="476.804" y2="425.039" style="stroke:#181818;stroke-width:1;stroke-dasharray:2,2;"/><text x="65" y="419.973" fill="#000" font-size="13" textLength="109.688">Begrüssungstext</text><path d="M13,437.039 L89.624,437.039 L89.624,444.172 L79.624,454.172 L13,454.172 L13,437.039" style="stroke:#000;stroke-width:1.5;" fill="#EEE"/><rect x="13" y="437.039" width="824.988" height="337.133" fill="none" style="stroke:#000;stroke-width:1.5;"/><text x="28" y="450.106" fill="#000" font-size="13" textLength="31.624" font-weight="700">loop</text><text x="104.624" y="449.25" fill="#000" font-size="11" textLength="168.298" font-weight="700">[solange finished == false]</text><polygon points="661,481.305,671,485.305,661,489.305,665,485.305" fill="#181818" style="stroke:#181818;stroke-width:1;stroke-linejoin:miter;stroke-miterlimit:10;"/><line x1="482.804" y1="485.305" x2="667" y2="485.305" style="stroke:#181818;stroke-width:1;"/><text x="489.804" y="480.239" fill="#000" font-size="13" textLength="65.152">getInput()</text><polygon points="59,510.438,49,514.438,59,518.438,55,514.438" fill="#181818" style="stroke:#181818;stroke-width:1;stroke-linejoin:miter;stroke-miterlimit:10;"/><line x1="53" y1="514.438" x2="672" y2="514.438" style="stroke:#181818;stroke-width:1;"/><text x="65" y="509.372" fill="#000" font-size="13" textLength="90.245">"> " anzeigen</text><polygon points="661,539.57,671,543.57,661,547.57,665,543.57" fill="#181818" style="stroke:#181818;stroke-width:1;stroke-linejoin:miter;stroke-miterlimit:10;"/><line x1="48" y1="543.57" x2="667" y2="543.57" style="stroke:#181818;stroke-width:1;stroke-dasharray:2,2;"/><text x="55" y="538.504" fill="#000" font-size="13" textLength="93.45">Text eingeben</text><polygon points="493.804,568.703,483.804,572.703,493.804,576.703,489.804,572.703" fill="#181818" style="stroke:#181818;stroke-width:1;stroke-linejoin:miter;stroke-miterlimit:10;"/><line x1="487.804" y1="572.703" x2="672" y2="572.703" style="stroke:#181818;stroke-width:1;stroke-dasharray:2,2;"/><text x="499.804" y="567.637" fill="#000" font-size="13" textLength="84.881">input : String</text><path d="M32,584.703 L96.443,584.703 L96.443,591.836 L86.443,601.836 L32,601.836 L32,584.703" style="stroke:#000;stroke-width:1.5;" fill="#EEE"/><rect x="32" y="584.703" width="780.988" height="175.469" fill="none" style="stroke:#000;stroke-width:1.5;"/><text x="47" y="597.77" fill="#000" font-size="13" textLength="19.443" font-weight="700">alt</text><text x="111.443" y="596.914" fill="#000" font-size="11" textLength="157.545" font-weight="700">[input beginnt mit "exit"]</text><line x1="482.804" y1="632.969" x2="524.804" y2="632.969" style="stroke:#181818;stroke-width:1;"/><line x1="524.804" y1="632.969" x2="524.804" y2="645.969" style="stroke:#181818;stroke-width:1;"/><line x1="483.804" y1="645.969" x2="524.804" y2="645.969" style="stroke:#181818;stroke-width:1;"/><polygon points="493.804,641.969,483.804,645.969,493.804,649.969,489.804,645.969" fill="#181818" style="stroke:#181818;stroke-width:1;stroke-linejoin:miter;stroke-miterlimit:10;"/><text x="489.804" y="627.903" fill="#000" font-size="13" textLength="97.138">finished = true</text><line x1="32" y1="654.969" x2="812.988" y2="654.969" style="stroke:#000;stroke-width:1;stroke-dasharray:2,2;"/><text x="37" y="667.179" fill="#000" font-size="11" textLength="154.816" font-weight="700">[normale Support-Frage]</text><polygon points="774.988,689.906,784.988,693.906,774.988,697.906,778.988,693.906" fill="#181818" style="stroke:#181818;stroke-width:1;stroke-linejoin:miter;stroke-miterlimit:10;"/><line x1="482.804" y1="693.906" x2="780.988" y2="693.906" style="stroke:#181818;stroke-width:1;"/><text x="489.804" y="688.84" fill="#000" font-size="13" textLength="165.496">generateResponse(input)</text><polygon points="493.804,719.039,483.804,723.039,493.804,727.039,489.804,723.039" fill="#181818" style="stroke:#181818;stroke-width:1;stroke-linejoin:miter;stroke-miterlimit:10;"/><line x1="487.804" y1="723.039" x2="785.988" y2="723.039" style="stroke:#181818;stroke-width:1;stroke-dasharray:2,2;"/><text x="499.804" y="717.973" fill="#000" font-size="13" textLength="110.773">response : String</text><polygon points="59,748.172,49,752.172,59,756.172,55,752.172" fill="#181818" style="stroke:#181818;stroke-width:1;stroke-linejoin:miter;stroke-miterlimit:10;"/><line x1="53" y1="752.172" x2="471.804" y2="752.172" style="stroke:#181818;stroke-width:1;stroke-dasharray:2,2;"/><text x="65" y="747.106" fill="#000" font-size="13" textLength="127.182">response ausgeben</text><line x1="482.804" y1="809.305" x2="529.804" y2="809.305" style="stroke:#181818;stroke-width:1;"/><line x1="529.804" y1="809.305" x2="529.804" y2="822.305" style="stroke:#181818;stroke-width:1;"/><line x1="488.804" y1="822.305" x2="529.804" y2="822.305" style="stroke:#181818;stroke-width:1;"/><polygon points="498.804,818.305,488.804,822.305,498.804,826.305,494.804,822.305" fill="#181818" style="stroke:#181818;stroke-width:1;stroke-linejoin:miter;stroke-miterlimit:10;"/><text x="494.804" y="804.239" fill="#000" font-size="13" textLength="98.865">printGoodbye()</text><polygon points="59,847.438,49,851.438,59,855.438,55,851.438" fill="#181818" style="stroke:#181818;stroke-width:1;stroke-linejoin:miter;stroke-miterlimit:10;"/><line x1="53" y1="851.438" x2="476.804" y2="851.438" style="stroke:#181818;stroke-width:1;stroke-dasharray:2,2;"/><text x="65" y="846.372" fill="#000" font-size="13" textLength="105.206">Verabschiedung</text><polygon points="258.433,876.57,248.433,880.57,258.433,884.57,254.433,880.57" fill="#181818" style="stroke:#181818;stroke-width:1;stroke-linejoin:miter;stroke-miterlimit:10;"/><line x1="252.433" y1="880.57" x2="471.804" y2="880.57" style="stroke:#181818;stroke-width:1;stroke-dasharray:2,2;"/><text x="264.433" y="875.504" fill="#000" font-size="13" textLength="45.024">(fertig)</text><line x1="782.988" y1="888.57" x2="800.988" y2="906.57" style="stroke:#666;stroke-width:2;"/><line x1="782.988" y1="906.57" x2="800.988" y2="888.57" style="stroke:#666;stroke-width:2;"/><line x1="669" y1="906.57" x2="687" y2="924.57" style="stroke:#666;stroke-width:2;"/><line x1="669" y1="924.57" x2="687" y2="906.57" style="stroke:#666;stroke-width:2;"/><polygon points="59,941.703,49,945.703,59,949.703,55,945.703" fill="#181818" style="stroke:#181818;stroke-width:1;stroke-linejoin:miter;stroke-miterlimit:10;"/><line x1="53" y1="945.703" x2="236.433" y2="945.703" style="stroke:#181818;stroke-width:1;stroke-dasharray:2,2;"/><text x="65" y="940.637" fill="#000" font-size="13" textLength="125.995">Programm beendet</text><?plantuml-src ZLJBRjim4BppAnRE8VP1LP40FHX8W3X1YpPD6yHfU-c5ajOo4vbKIIgE_MsvzSUwf5wKd08H8DXS3MTdXxiyXkjlqSq9n72Zigg0qvFt4C4I_rGezvdWkUQR3Jk67mRXaXkSmsI1ih9xr60i5eK5519XMPMbqZRwg7cE4vZUOxfkOXTbEIE6IvNHxhMrfPd7SIvimPDtgTh4Nwf2S7bDv3f-u4zSep6gqYcQE8gjHemtNCWufVtna9OnIpJOYNkRjWZ6BEPHo99JfK2vIoKDtf060Y-mKDiBhTKMhAum01hlK8fVnOfUYGkbCzINgb0QZZxu9q3VScr5AaekxG1uwX_6U6ffsQcV03TGaH-ix3V2P6bfrNmrzN_670oYypO0SxZLofzQ4v8mTVxDN1Bnn2tsUuyXeWU-9m_uIF4jaZG9gFTOvHQcr-G4bVr8scOUoLADZc2WojH6BdTa-UQtdBTsru5QxCwmLf-JkZCaK-9s29s64cd7QyaeHEwvB9zbMTaxl_GvwY_CSLEAUjLa2Q2KutLQT-mDyrsxQ7YRLK_T11hs3axS7Z8uZ84xBCD1XUq1N14KHOxI5Y9T1_tiJJzmpWV6RhNoQaYfXRI_iA3vmX4IZgxyqudr7JI71URwxuinbSn9wxCz45ieLO9H1PSvmaf8OTQOmTaPh7XXa06ClS_HUkj90437rHmKjBXUmUGSo7AvzrOGe6xjaF6UTBcPpZ7nY9QYgrkuVFIxj6H0JeYWY2Qnqq8tGurCC1UIEc0Zg0lmMTW9VUuggJdxKkjB002fNf1ARtWnkbt2tM6ZK46eISHTSxzCVVgPXmS2srPpuNvxNrvxFOKLZceCAKOdtEtcbMaTH9anzxxIFf-KofBTMzld9zMNc7GjCACEEcYUmycOhf0cC9_zRoX6jvAaoQ1pmhKcCnFDAxVqyv4XtL9g5zJUHtYuh8MqqzHBxoxC1CaA77P-3Vy7?></g></svg>